<svg width="1920" height="1080" viewBox="0 0 1920 1080" xmlns="http://www.w3.org/2000/svg"><rect width="1920" height="1080" fill="#688bdf"/><path d="M 0,1080 C 0,1080 0,270 0,270 C 287.7333333333333,311.4666666666667 575.4666666666666,352.93333333333334 758,360 C 940.5333333333334,367.06666666666666 1017.8666666666668,339.73333333333335 1194,319 C 1370.1333333333332,298.26666666666665 1645.0666666666666,284.1333333333333 1920,270 C 1920,270 1920,1080 1920,1080 Z" fill="#101251" opacity="0.15"/><path d="M 0,1080 C 0,1080 0,540 0,540 C 172.13333333333333,537.3333333333334 344.26666666666665,534.6666666666667 550,553 C 755.7333333333333,571.3333333333333 995.0666666666666,610.6666666666666 1229,612 C 1462.9333333333334,613.3333333333334 1691.4666666666667,576.6666666666667 1920,540 C 1920,540 1920,1080 1920,1080 Z" fill="#101251" opacity="0.3"/><path d="M 0,1080 C 0,1080 0,810 0,810 C 279.7333333333333,769.0666666666666 559.4666666666666,728.1333333333333 749,751 C 938.5333333333334,773.8666666666667 1037.8666666666668,860.5333333333334 1218,881 C 1398.1333333333332,901.4666666666666 1659.0666666666666,855.7333333333333 1920,810 C 1920,810 1920,1080 1920,1080 Z" fill="#101251" opacity="0.44999999999999996"/></svg>