<svg xmlns="http://www.w3.org/2000/svg" version="1.1" xmlns:xlink="http://www.w3.org/1999/xlink" xmlns:svgjs="http://svgjs.com/svgjs" width="1000" height="560" preserveAspectRatio="none" viewBox="0 0 1000 560">
    <g mask="url(&quot;#SvgjsMask1008&quot;)" fill="none">
        <path d="M-53.23 -21.44 a31.79 31.79 0 1 0 63.58 0 a31.79 31.79 0 1 0 -63.58 0z" fill="rgba(19, 88, 181, 0.4)" class="triangle-float1"></path>
        <path d="M-54.6 -20.07 a34.53 34.53 0 1 0 69.06 0 a34.53 34.53 0 1 0 -69.06 0z" fill="rgba(19, 88, 181, 0.4)" class="triangle-float3"></path>
        <path d="M-125.88 51.2 a177.08 177.08 0 1 0 354.16 0 a177.08 177.08 0 1 0 -354.16 0z" fill="rgba(19, 88, 181, 0.4)" class="triangle-float3"></path>
        <path d="M764.79 48.54 a171.75 171.75 0 1 0 343.5 0 a171.75 171.75 0 1 0 -343.5 0z" fill="rgba(19, 88, 181, 0.4)" class="triangle-float3"></path>
        <path d="M809.81 3.52 a81.71 81.71 0 1 0 163.42 0 a81.71 81.71 0 1 0 -163.42 0z" fill="rgba(19, 88, 181, 0.4)" class="triangle-float3"></path>
        <path d="M850.33 -37 a0.67 0.67 0 1 0 1.34 0 a0.67 0.67 0 1 0 -1.34 0z" fill="rgba(19, 88, 181, 0.4)" class="triangle-float3"></path>
        <path d="M-41.17 414.51 a7.68 7.68 0 1 0 15.36 0 a7.68 7.68 0 1 0 -15.36 0z" fill="rgba(19, 88, 181, 0.4)" class="triangle-float2"></path>
        <path d="M-53.09 426.42 a31.51 31.51 0 1 0 63.02 0 a31.51 31.51 0 1 0 -63.02 0z" fill="rgba(19, 88, 181, 0.4)" class="triangle-float2"></path>
        <path d="M-90.42 463.76 a106.18 106.18 0 1 0 212.36 0 a106.18 106.18 0 1 0 -212.36 0z" fill="rgba(19, 88, 181, 0.4)" class="triangle-float2"></path>
        <path d="M767.33 493.99 a166.66 166.66 0 1 0 333.32 0 a166.66 166.66 0 1 0 -333.32 0z" fill="rgba(19, 88, 181, 0.4)" class="triangle-float1"></path>
        <path d="M810.36 450.98 a80.62 80.62 0 1 0 161.24 0 a80.62 80.62 0 1 0 -161.24 0z" fill="rgba(19, 88, 181, 0.4)" class="triangle-float3"></path>
        <path d="M811.81 449.52 a77.71 77.71 0 1 0 155.42 0 a77.71 77.71 0 1 0 -155.42 0z" fill="rgba(19, 88, 181, 0.4)" class="triangle-float3"></path>
    </g>
    <defs>
        <mask id="SvgjsMask1008">
            <rect width="1000" height="560" fill="#ffffff"></rect>
        </mask>
        <style>
            @keyframes float1 {
                0%{transform: translate(0, 0)}
                50%{transform: translate(-10px, 0)}
                100%{transform: translate(0, 0)}
            }

            .triangle-float1 {
                animation: float1 5s infinite;
            }

            @keyframes float2 {
                0%{transform: translate(0, 0)}
                50%{transform: translate(-5px, -5px)}
                100%{transform: translate(0, 0)}
            }

            .triangle-float2 {
                animation: float2 4s infinite;
            }

            @keyframes float3 {
                0%{transform: translate(0, 0)}
                50%{transform: translate(0, -10px)}
                100%{transform: translate(0, 0)}
            }

            .triangle-float3 {
                animation: float3 6s infinite;
            }
        </style>
    </defs>
</svg>