<svg xmlns="http://www.w3.org/2000/svg" viewBox="0 0 1440 320"><path fill="#0099ff" fill-opacity="100" d="M0,192L26.7,202.7C53.3,213,107,235,160,229.3C213.3,224,267,192,320,176C373.3,160,427,160,480,176C533.3,192,587,224,640,240C693.3,256,747,256,800,229.3C853.3,203,907,149,960,154.7C1013.3,160,1067,224,1120,250.7C1173.3,277,1227,267,1280,256C1333.3,245,1387,235,1413,229.3L1440,224L1440,0L1413.3,0C1386.7,0,1333,0,1280,0C1226.7,0,1173,0,1120,0C1066.7,0,1013,0,960,0C906.7,0,853,0,800,0C746.7,0,693,0,640,0C586.7,0,533,0,480,0C426.7,0,373,0,320,0C266.7,0,213,0,160,0C106.7,0,53,0,27,0L0,0Z"></path></svg>