<svg viewBox="0 0 200 200" xmlns="http://www.w3.org/2000/svg">
  <path fill="#188FF4" d="M42.7,-73.3C55.4,-66.8,65.5,-55.2,71.1,-42.2C76.6,-29.1,77.6,-14.6,78.2,0.4C78.8,15.3,79,30.5,74,44.5C69,58.5,58.7,71.1,45.5,76.9C32.3,82.7,16.1,81.5,1.7,78.5C-12.7,75.5,-25.3,70.7,-38,64.6C-50.6,58.5,-63.3,51.2,-72.3,40.2C-81.4,29.2,-86.9,14.6,-86.1,0.4C-85.4,-13.7,-78.3,-27.4,-69.5,-38.8C-60.6,-50.1,-49.9,-59.1,-38.1,-66C-26.2,-72.9,-13.1,-77.9,1,-79.6C15.1,-81.3,30.1,-79.8,42.7,-73.3Z" transform="translate(100 100)" />
</svg>
